<svg width="153" height="80" viewBox="0 0 153 80" fill="none" xmlns="http://www.w3.org/2000/svg">
<path d="M99.9818 75.4444V78.3521H89.3206V75.4444H87.3822V72.5368H84.4746V69.6292H81.567V67.6908H92.2282V70.5984H94.1666V72.5368H97.0742V75.4444H99.9818Z" fill="#EEEEEE" fill-opacity="0.4"/>
<path d="M99.9818 57.0297V54.1221H89.3206V57.0297H87.3822V59.9373H84.4746V62.8449H81.567V64.7833H92.2282V61.8757H94.1666V59.9373H97.0742V57.0297H99.9818Z" fill="#EEEEEE" fill-opacity="0.4"/>
<path d="M80.5978 60.9062H77.6902V50.245H80.5978V48.3066H83.5054V45.399H86.413V42.4914H88.3514V53.1526H85.4438V55.091H83.5054V57.9986H80.5978V60.9062Z" fill="#EEEEEE" fill-opacity="0.4"/>
<path d="M67.0289 42.4917H64.1213V53.1529H67.0289V55.0913H69.9365V57.9989H72.8442V60.9065H74.7826V50.2453H71.875V48.3069H69.9365V45.3993H67.0289V42.4917Z" fill="#EEEEEE" fill-opacity="0.4"/>
<path d="M52.491 57.0297V54.1221H63.1522V57.0297H65.0906V59.9373H67.9982V62.8449H70.9058V64.7833H60.2446V61.8757H58.3062V59.9373H55.3986V57.0297H52.491Z" fill="#EEEEEE" fill-opacity="0.4"/>
<path d="M52.491 75.4444V78.3521H63.1522V75.4444H65.0906V72.5368H67.9982V69.6292H70.9058V67.6908H60.2446V70.5984H58.3062V72.5368H55.3986V75.4444H52.491Z" fill="#EEEEEE" fill-opacity="0.4"/>
<path d="M85.4438 89.9824L88.3514 89.9824L88.3514 79.3212L85.4438 79.3212L85.4438 77.3828L82.5362 77.3828L82.5362 74.4752L79.6286 74.4752L79.6286 71.5676L77.6902 71.5676L77.6902 82.2288L80.5978 82.2288L80.5978 84.1672L82.5362 84.1672L82.5362 87.0748L85.4438 87.0748L85.4438 89.9824Z" fill="#EEEEEE" fill-opacity="0.4"/>
<path d="M71.875 71.5674L74.7826 71.5674L74.7826 82.2286L71.875 82.2286L71.875 84.167L68.9674 84.167L68.9674 87.0746L66.0598 87.0746L66.0598 89.9822L64.1214 89.9822L64.1214 79.321L67.029 79.321L67.029 77.3826L68.9674 77.3826L68.9674 74.475L71.875 74.475L71.875 71.5674Z" fill="#EEEEEE" fill-opacity="0.4"/>
<rect width="2.9076" height="2.9076" transform="matrix(0 -1 -1 0 77.6901 67.6909)" fill="#EEEEEE" fill-opacity="0.4"/>
<path fill-rule="evenodd" clip-rule="evenodd" d="M152.473 69.9863V63.7375H149.973V61.238H147.474V58.7385H144.974V56.239H142.475V53.7394H139.975V51.2397H137.475V48.7406H134.976V46.241H132.476V43.7413H124.978V46.241H122.478V48.7403H119.979V51.2397H117.479V53.7391H114.98V56.239H112.48V58.7385H109.981V61.238H107.481V63.7376H104.982V69.9864H108.731V64.9872H111.231V62.4878H113.73V59.9882H116.23V57.4884H118.729V54.989H121.229V52.4895H123.728V49.9903H126.228V47.4906H131.227V49.9903H133.726V52.4898H136.226V54.989H138.725V57.4887H141.225V59.9882H143.724V62.4878H146.224V64.9872H148.723V69.9863H152.473Z" fill="#EEEEEE" fill-opacity="0.4"/>
<path fill-rule="evenodd" clip-rule="evenodd" d="M152.473 63.7373V69.9861H149.973V72.486H147.474V74.9854H144.974V77.4847H142.474V79.9843H139.975V82.4839H137.475V84.9833H134.976V87.4829H132.476V89.9824H124.978V87.4829H122.478V84.9833H119.979V82.4842H117.479V79.9846H114.98V77.4847H112.48V74.9851H109.981V72.486H107.481V69.9864H104.982V63.7376H108.731V68.7367H111.23V71.2359H113.73V73.7354H116.23V76.2353H118.729V78.7349H121.228V81.234H123.728V83.7336H126.228V86.2331H131.227V83.7336H133.726V81.234H136.226V78.7346H138.725V76.235H141.225V73.7354H143.724V71.2362H146.224V68.7367H148.723V63.7373H152.473Z" fill="#EEEEEE" fill-opacity="0.4"/>
<rect width="6.2488" height="6.2488" transform="matrix(0 -1 -1 0 131.227 69.9863)" fill="#EEEEEE" fill-opacity="0.4"/>
<path fill-rule="evenodd" clip-rule="evenodd" d="M47.491 69.9863V63.7375H44.9915V61.238H42.4919V58.7385H39.9924V56.239H37.493V53.7394H34.9933V51.24H32.4938L32.4938 48.7403H29.9944V46.2408H27.4948V43.7418H19.9962V46.2408H17.4968V48.7403H14.9971V51.24H12.4976V53.7394H9.99815V56.2393H7.49871V58.7385H4.99907V61.238H2.49967V63.7376H-4.79871e-06V69.9864H3.74927V64.9872H6.24895V62.4878H8.74835V59.9885H11.248V57.4887H13.7474V54.9893H16.2469V52.4895H18.7464V49.99H21.2461V47.4911H26.2451V49.99H28.7445V52.4895H31.2441V54.9893H33.7437V57.4887H36.2431V59.9882H38.7426V62.4878H41.2422V64.9872H43.7417V69.9863H47.491Z" fill="#EEEEEE" fill-opacity="0.4"/>
<path fill-rule="evenodd" clip-rule="evenodd" d="M47.4908 63.7373V69.9861H44.9914V72.4857H42.4919V74.9851H39.9924V77.4847H37.4927V79.9843H34.9932V82.4839H32.4938V84.9833H29.9943V87.4829H27.4947V89.9824H19.9961V87.4829H17.4967V84.9833H14.9971V82.4839H12.4976V79.9843H9.99815V77.4847H7.49864V74.9851H4.99901V72.4857H2.4996V69.9861H-4.79872e-06V63.7373H3.74927V68.7364H6.24888V71.2359H8.74829V73.7354H11.2479V76.235H13.7474V78.7346H16.2469V81.234H18.7463V83.7336H21.246V86.2331H26.245V83.7336H28.7445V81.234H31.244V78.7346H33.7435V76.235H36.2431V73.7354H38.7426V71.2359H41.2421V68.7364H43.7416V63.7373H47.4908Z" fill="#EEEEEE" fill-opacity="0.4"/>
<rect width="6.2488" height="6.2488" transform="matrix(0 -1 -1 0 26.245 69.9863)" fill="#EEEEEE" fill-opacity="0.4"/>
<path d="M152.473 22.9527V25.8604H141.812V22.9527H139.873V20.0451H136.966V17.1375H134.058V15.1991H144.719V18.1067H146.658V20.0451H149.565V22.9527H152.473Z" fill="#EEEEEE" fill-opacity="0.4"/>
<path d="M152.473 4.53798V1.63037L141.812 1.63037V4.53798H139.873V7.44558H136.966V10.3532H134.058V12.2916H144.719V9.38398H146.658V7.44558H149.565V4.53798H152.473Z" fill="#EEEEEE" fill-opacity="0.4"/>
<path d="M133.089 8.41455H130.181V-2.24667H133.089V-4.18507H135.997V-7.09268H138.904V-10.0003H140.843V0.660937L137.935 0.660937V2.59934H135.997V5.50695H133.089V8.41455Z" fill="#EEEEEE" fill-opacity="0.4"/>
<path d="M119.52 -10H116.612V0.661219H119.52V2.59962H122.428V5.50723H125.335V8.41483H127.274V-2.24639L124.366 -2.24639V-4.18479H122.428V-7.0924H119.52V-10Z" fill="#EEEEEE" fill-opacity="0.4"/>
<path d="M104.982 4.53798V1.63037L115.643 1.63037V4.53798H117.582V7.44558H120.489V10.3532H123.397V12.2916H112.736V9.38398H110.797V7.44558H107.89V4.53798H104.982Z" fill="#EEEEEE" fill-opacity="0.4"/>
<path d="M104.982 22.9527V25.8604H115.643V22.9527H117.582V20.0451H120.489V17.1375H123.397V15.1991H112.736V18.1067H110.797V20.0451H107.89V22.9527H104.982Z" fill="#EEEEEE" fill-opacity="0.4"/>
<path d="M137.935 37.4907L140.843 37.4907L140.843 26.8295L137.935 26.8295L137.935 24.8911L135.027 24.8911L135.027 21.9835L132.12 21.9835L132.12 19.0759L130.181 19.0759L130.181 29.7371L133.089 29.7371L133.089 31.6755L135.027 31.6755L135.027 34.5831L137.935 34.5831L137.935 37.4907Z" fill="#EEEEEE" fill-opacity="0.4"/>
<path d="M124.366 19.0757L127.274 19.0757L127.274 29.7369L124.366 29.7369L124.366 31.6753L121.458 31.6753L121.458 34.5829L118.551 34.5829L118.551 37.4905L116.612 37.4905L116.612 26.8293L119.52 26.8293L119.52 24.8909L121.458 24.8909L121.458 21.9833L124.366 21.9833L124.366 19.0757Z" fill="#EEEEEE" fill-opacity="0.4"/>
<rect width="2.9076" height="2.9076" transform="matrix(0 -1 -1 0 130.181 15.1992)" fill="#EEEEEE" fill-opacity="0.4"/>
<path d="M47.4911 22.9532V25.8608H36.8299V22.9532H34.8915V20.0456H31.9839V17.138H29.0763V15.1996H39.7375V18.1072H41.6759V20.0456H44.5835V22.9532H47.4911Z" fill="#EEEEEE" fill-opacity="0.4"/>
<path d="M47.4911 4.53798V1.63037L36.8299 1.63037V4.53798H34.8915V7.44558H31.9839V10.3532H29.0763V12.2916H39.7375V9.38398H41.6759V7.44558H44.5835V4.53798H47.4911Z" fill="#EEEEEE" fill-opacity="0.4"/>
<path d="M28.1071 8.41504H25.1995V-2.24618H28.1071V-4.18458H31.0147V-7.09219H33.9223V-9.99979H35.8607V0.661426L32.9531 0.661426V2.59983H31.0147V5.50743H28.1071V8.41504Z" fill="#EEEEEE" fill-opacity="0.4"/>
<path d="M14.5382 -9.99951H11.6306V0.661707H14.5382V2.60011H17.4458V5.50772H20.3534V8.41532H22.2918V-2.2459L19.3842 -2.2459V-4.1843H17.4458V-7.09191H14.5382V-9.99951Z" fill="#EEEEEE" fill-opacity="0.4"/>
<path d="M0.000244141 4.53798L0.000244141 1.63037L10.6615 1.63037V4.53798H12.5999V7.44558H15.5075V10.3532H18.4151V12.2916H7.75386L7.75386 9.38398H5.81545V7.44558H2.90785L2.90785 4.53798H0.000244141Z" fill="#EEEEEE" fill-opacity="0.4"/>
<path d="M0.000244141 22.9532L0.000244141 25.8608H10.6615V22.9532H12.5999V20.0456H15.5075V17.138H18.4151V15.1996H7.75386L7.75386 18.1072H5.81545V20.0456H2.90785L2.90785 22.9532H0.000244141Z" fill="#EEEEEE" fill-opacity="0.4"/>
<path d="M32.953 37.4912L35.8606 37.4912L35.8606 26.83L32.953 26.83L32.953 24.8916L30.0454 24.8916L30.0454 21.984L27.1378 21.984L27.1378 19.0764L25.1994 19.0764L25.1994 29.7376L28.107 29.7376L28.107 31.676L30.0454 31.676L30.0454 34.5836L32.953 34.5836L32.953 37.4912Z" fill="#EEEEEE" fill-opacity="0.4"/>
<path d="M19.3841 19.0762L22.2917 19.0762L22.2917 29.7374L19.3841 29.7374L19.3841 31.6758L16.4765 31.6758L16.4765 34.5834L13.5689 34.5834L13.5689 37.491L11.6305 37.491L11.6305 26.8298L14.5381 26.8298L14.5381 24.8914L16.4765 24.8914L16.4765 21.9838L19.3841 21.9838L19.3841 19.0762Z" fill="#EEEEEE" fill-opacity="0.4"/>
<rect width="2.9076" height="2.9076" transform="matrix(0 -1 -1 0 25.1993 15.1997)" fill="#EEEEEE" fill-opacity="0.4"/>
<path fill-rule="evenodd" clip-rule="evenodd" d="M99.9822 16.2451V9.99632H97.4827V7.49639H94.9831V4.99715H92.4836V2.49741H89.9841V-0.00179766H87.4844V-2.50153H84.985V-5.00103H82.4856V-7.50017H79.986V-9.99995H72.4874V-7.50017H69.988V-5.00132H67.4884V-2.50131H64.9888V-0.00179766H62.4893V2.49741H59.9899V4.99715H57.4903V7.49639H54.9908V9.99629H52.4912V16.2451H56.2405V11.2457H58.7401V8.74643H61.2396V6.24669H63.7392V3.74748H66.2386V1.24796H68.738V-1.25204H71.2377V-3.75089H73.7372V-6.25067H78.7363V-3.75089H81.2357V-1.25175H83.7351V1.24775H86.2349V3.74748H88.7343V6.24669H91.2338V8.74643H93.7334V11.2457H96.2329V16.2451H99.9822Z" fill="#EEEEEE" fill-opacity="0.4"/>
<path fill-rule="evenodd" clip-rule="evenodd" d="M99.9821 9.99658V16.2454H97.4825V18.7453H94.9831V21.2445H92.4835V23.744H89.9839V26.2435H87.4843V28.743H84.9849V31.2427H82.4854V33.7418H79.9859V36.2416H72.4873V33.7418H69.9878V31.2427H67.4882V28.743H64.9887V26.2435H62.4893V23.744H59.9897V21.244H57.4903V18.7453H54.9906V16.2454H52.4912V9.99658H56.2404V14.996H58.7399V17.4947H61.2396V19.9947H63.739V22.4942H66.2386V24.9937H68.738V27.4934H71.2375V29.9926H73.7371V32.4924H78.7361V29.9926H81.2356V27.4934H83.7351V24.9937H86.2346V22.4942H88.7342V19.9947H91.2338V17.4953H93.7332V14.996H96.2328V9.99658H99.9821Z" fill="#EEEEEE" fill-opacity="0.4"/>
<rect width="6.2488" height="6.2488" transform="matrix(0 -1 -1 0 78.7361 16.2451)" fill="#EEEEEE" fill-opacity="0.4"/>
</svg>
